<?xml version="1.0" encoding="UTF-8"?><svg id="Light_Mode" xmlns="http://www.w3.org/2000/svg" viewBox="0 0 678.41 270.07"><polygon points="488.65 50.56 482.45 92.95 395.76 92.95 371.92 270.07 317.22 270.07 341.92 92.95 247.79 92.95 253.46 50.56 488.65 50.56" fill="#1e2333"/><path d="M227.25,42.39l-7.95,59.47h108.5l-5.44,39.06h-106.03l-7.99,59.47h105.77l-6.44,46.6h-160.74c-1.21,0-2.2-.35-2.89-.95L178.18,0h163.73l-5.86,42.39h-108.8Z" fill="#1e2333"/><polygon points="116.81 100.63 116.81 79.29 0 118.5 0 131.57 0 139.03 0 151.57 116.81 190.77 116.81 169.97 18.67 137.7 18.67 132.89 116.81 100.63" fill="#1e2333"/><path d="M488.65,226.85l44.6-183.64h19.68l-44.6,183.64h-19.68Z" fill="#1e2333"/><polygon points="561.61 83.53 561.61 104.33 659.75 136.6 659.75 141.4 561.61 173.67 561.61 195.01 678.41 155.8 678.41 142.73 678.41 135.27 678.41 122.73 561.61 83.53" fill="#1e2333"/></svg>